<?xml version="1.0" encoding="UTF-8"?> <svg xmlns="http://www.w3.org/2000/svg" width="44.998" height="44.994" viewBox="0 0 44.998 44.994"><g id="Group_82" data-name="Group 82" transform="translate(-102.792 -150.507)"><path id="Union_1" data-name="Union 1" d="M22.076,44q-6.084,0-12.164,0A9.914,9.914,0,0,1,0,33.8Q0,21.97,0,10.139A9.912,9.912,0,0,1,9.759.011Q22-.013,34.233.011A9.91,9.91,0,0,1,44,10.13Q44,22,44,33.867A9.917,9.917,0,0,1,34.166,44q-2.16,0-4.319,0Q25.961,44,22.076,44Z" transform="translate(103.29 151)" fill="#2d3038" stroke="rgba(0,0,0,0)" stroke-miterlimit="10" stroke-width="1"></path><g id="Group_11" data-name="Group 11" transform="translate(115.668 158.568)"><path id="Path_4" data-name="Path 4" d="M216.678,945.622a4.8,4.8,0,0,0,4.778-4.778V936h-4.778a4.811,4.811,0,0,0,0,9.622Z" transform="translate(-211.835 -916.757)" fill="#0acf83"></path><path id="Path_5" data-name="Path 5" d="M211.8,926.178a4.8,4.8,0,0,1,4.778-4.778h4.778v9.687h-4.778A5.009,5.009,0,0,1,211.8,926.178Z" transform="translate(-211.8 -911.713)" fill="#a259ff"></path><path id="Path_6" data-name="Path 6" d="M211.8,911.378a4.8,4.8,0,0,1,4.778-4.778h4.778v9.687h-4.778A4.919,4.919,0,0,1,211.8,911.378Z" transform="translate(-211.8 -906.6)" fill="#f24e1e"></path><path id="Path_7" data-name="Path 7" d="M226.6,906.6h4.778a4.778,4.778,0,1,1,0,9.556H226.6Z" transform="translate(-216.913 -906.6)" fill="#ff7262"></path><path id="Path_8" data-name="Path 8" d="M236.156,926.178a4.778,4.778,0,1,1-4.778-4.778A4.722,4.722,0,0,1,236.156,926.178Z" transform="translate(-216.913 -911.713)" fill="#1abcfe"></path></g></g></svg> 