<?xml version="1.0" encoding="UTF-8"?> <svg xmlns="http://www.w3.org/2000/svg" width="44" height="44" viewBox="0 0 44 44"><g id="Group_81" data-name="Group 81" transform="translate(-323 -273)"><g id="Group_31" data-name="Group 31" transform="translate(333.565 285.319)"><g id="Group_30" data-name="Group 30"><path id="Path_177" data-name="Path 177" d="M94.509,886.29c-2.073-.644-4.216-.341-6.332-.368-.688-.007-1.375,0-2.1,0,0,5.78,0,11.381-.006,16.982,0,.4.18.524.542.521.7-.006,1.4,0,2.1,0,.989,0,.992,0,.994-.992,0-1.471,0-2.942,0-4.492.534,0,.98.03,1.421-.006a24.1,24.1,0,0,0,2.821-.309,5.591,5.591,0,0,0,4.76-5.47A5.445,5.445,0,0,0,94.509,886.29Zm-1.163,8.081a31.983,31.983,0,0,1-3.6.466v-5.862a28.283,28.283,0,0,1,3.627.4,2.333,2.333,0,0,1,1.708,2.588A2.246,2.246,0,0,1,93.346,894.371Z" transform="translate(-86.071 -885.874)" fill="#00cafe"></path><path id="Path_178" data-name="Path 178" d="M110.091,899.853a3.662,3.662,0,0,1-2.521,3.322,9.444,9.444,0,0,1-6.321,0,.814.814,0,0,1-.66-.926c.048-.821.014-1.645.014-2.622a8.221,8.221,0,0,0,4.276,1.088c.634-.03,1.419.047,1.607-.766.2-.855-.594-1.051-1.16-1.323-.764-.366-1.569-.65-2.328-1.026-1.861-.92-2.706-2.327-2.472-4.036a4.129,4.129,0,0,1,3.511-3.511,10.394,10.394,0,0,1,4.6.188c.476.118.723.327.69.873-.048.794-.012,1.594-.012,2.333-1.206-.213-2.362-.451-3.53-.6a2.661,2.661,0,0,0-1.24.177.74.74,0,0,0-.187,1.385,13.267,13.267,0,0,0,1.732.866c.716.344,1.459.643,2.149,1.034A3.453,3.453,0,0,1,110.091,899.853Z" transform="translate(-86.071 -885.874)" fill="#00cafe"></path></g></g><path id="Path_179" data-name="Path 179" d="M108.894,873.459q-12.237-.021-24.474,0a9.912,9.912,0,0,0-9.757,10.127q0,11.832,0,23.663a9.915,9.915,0,0,0,9.91,10.2q6.081,0,12.165,0c4.029,0,8.06.008,12.09,0a9.918,9.918,0,0,0,9.831-10.129q0-11.868,0-23.738A9.909,9.909,0,0,0,108.894,873.459Zm-11.025,18.6a5.511,5.511,0,0,1-4.593,5.442,22.577,22.577,0,0,1-2.722.307c-.426.036-.856.006-1.371.006,0,1.542,0,3.005,0,4.469,0,.983,0,.986-.959.987-.676,0-1.353-.006-2.027,0-.349,0-.523-.116-.523-.518.009-5.572.006-11.144.006-16.894.7,0,1.363-.006,2.026,0,2.042.027,4.11-.275,6.11.366A5.4,5.4,0,0,1,97.869,892.059Zm10.982,7.658a3.629,3.629,0,0,1-2.433,3.3,8.857,8.857,0,0,1-6.1,0,.807.807,0,0,1-.637-.921c.046-.817.014-1.637.014-2.609a7.746,7.746,0,0,0,4.126,1.082c.612-.03,1.369.047,1.551-.762.19-.851-.573-1.046-1.119-1.316-.737-.364-1.514-.647-2.247-1.021a3.791,3.791,0,0,1-2.385-4.015,4.05,4.05,0,0,1,3.388-3.493,9.738,9.738,0,0,1,4.439.187.737.737,0,0,1,.666.868c-.046.79-.012,1.586-.012,2.321-1.164-.212-2.279-.449-3.406-.6a2.5,2.5,0,0,0-1.2.176.743.743,0,0,0-.18,1.378,12.649,12.649,0,0,0,1.671.862c.691.342,1.408.64,2.074,1.029A3.463,3.463,0,0,1,108.851,899.717ZM94.367,891.87a2.227,2.227,0,0,1-1.675,2.394,29.98,29.98,0,0,1-3.473.464v-5.832a26.5,26.5,0,0,1,3.5.4A2.32,2.32,0,0,1,94.367,891.87Z" transform="translate(248.339 -600.447)" fill="#001d23"></path></g></svg> 