<?xml version="1.0" encoding="UTF-8"?> <svg xmlns="http://www.w3.org/2000/svg" width="44" height="44" viewBox="0 0 44 44"><g id="Group_79" data-name="Group 79" transform="translate(-61.09 -906.7)"><rect id="Rectangle_1" data-name="Rectangle 1" width="33.788" height="26" transform="translate(66.8 913.549)" fill="#ff61f6"></rect><g id="Group_15213_00000160888351655208948760000015781632936625282477_" transform="translate(61.09 906.7)"><g id="Group_12" data-name="Group 12" transform="translate(0)"><path id="Path_14071_00000027563032805868552540000018338399078915562123_" d="M36.626,208.7H8.151a7.236,7.236,0,0,0-1.473.1A7.916,7.916,0,0,0,.1,216.974v27.444a7.83,7.83,0,0,0,7.364,8.274H35.84a7.769,7.769,0,0,0,8.051-7.466v-.605c.2-9.283.2-18.666.2-27.848A7.73,7.73,0,0,0,36.626,208.7ZM11.882,229.182c-1.669-2.825-3.338-5.65-4.909-8.475-.1-.2-.295-.4-.491-.807a18.363,18.363,0,0,0,2.357,0c1.767-.3,2.749.4,3.535,2.119.687,1.816,1.767,3.531,2.651,5.348,1.178-2.321,2.258-4.54,3.535-6.76a.93.93,0,0,1,.982-.605h3.731a6.017,6.017,0,0,0-.393.807c-1.571,2.724-3.338,5.549-4.909,8.274a.938.938,0,0,0,0,1.009c1.767,2.825,3.535,5.852,5.2,8.677a9.352,9.352,0,0,0,.491.807H18.952c-.2,0-.491-.3-.589-.605-1.178-2.119-2.258-4.44-3.633-6.76-.589,1.009-.982,1.917-1.473,2.825-.687,1.312-1.375,2.623-2.062,4.036-.1.2-.295.5-.491.5H6.384a6.018,6.018,0,0,0,.393-.807c1.669-2.825,3.437-5.65,5.106-8.475A.928.928,0,0,0,11.882,229.182Zm25.333,9.686a12.967,12.967,0,0,1-8.051.807,6.728,6.728,0,0,1-5.2-6.457,7.829,7.829,0,0,1,6.775-8.778,3.2,3.2,0,0,1,.982,0h1.571v-5.348c0-.605.1-.807.687-.807h3.437v16.446c0,1.211.1,2.321.1,3.632A.693.693,0,0,1,37.215,238.868Z" transform="translate(-0.09 -208.7)" fill="#450034"></path><path id="Path_14072_00000085958328223278257470000017356105304561071254_" d="M34.1,235.5c0,.5-.2.7-.6.7-1.6.1-3.2,0-4.1-1.6a4.742,4.742,0,0,1,0-5c.9-1.5,2.5-1.9,4.3-1.8.4,0,.5.2.5.6v3.7A18.745,18.745,0,0,0,34.1,235.5Z" transform="translate(-0.681 -208.487)" fill="#450034"></path></g></g></g></svg> 